PathFileType   4   (X/Y/Z)
DataRate	CameraRate	NumFrames	NumMarkers	Units	OrigDataRate	OrigDataStartFrame	OrigNumFrames
120.0	120.0	12	37	mm	120.0	98	156
Frame#	Time	midhip	hip_r	hip_l	knee_r	knee_l	ankle_r	ankle_l	midasis	asis_r	asis_l	psis_r	psis_l	epicondLat_r	epicondLat_l	epicondMed_r	epicondMed_l	malleolusLat_r	malleolusLat_l	malleolusMedv_r	malleolusMedv_l	neck	subclavicle_r	subclavicle_l	sternalnotch	xyphoidprocess	thighwand_r	thighwand_l	upperleg1_r	upperleg1_l	upperleg2_r	upperleg2_l	shankwand_r	shankwand_l	lowerleg1_r	lowerleg1_l	toe_r	toe_l
 	 	X1	Y1	Z1	X2	Y2	Z2	X3	Y3	Z3	X4	Y4	Z4	X5	Y5	Z5	X6	Y6	Z6	X7	Y7	Z7	X8	Y8	Z8	X9	Y9	Z9	X10	Y10	Z10	X11	Y11	Z11	X12	Y12	Z12	X13	Y13	Z13	X14	Y14	Z14	X15	Y15	Z15	X16	Y16	Z16	X17	Y17	Z17	X18	Y18	Z18	X19	Y19	Z19	X20	Y20	Z20	X21	Y21	Z21	X22	Y22	Z22	X23	Y23	Z23	X24	Y24	Z24	X25	Y25	Z25	X26	Y26	Z26	X27	Y27	Z27	X28	Y28	Z28	X29	Y29	Z29	X30	Y30	Z30	X31	Y31	Z31	X32	Y32	Z32	X33	Y33	Z33	X34	Y34	Z34	X35	Y35	Z35	X36	Y36	Z36	X37	Y37	Z37

	98	1.02500	-1659.365	900.306	222.335	-1651.699	889.613	276.967	-1662.887	888.462	170.992	-1571.937	489.936	265.675	-1640.592	473.775	136.531	-1585.863	70.821	252.959	-1941.002	185.270	131.680	-1579.514	986.198	214.713	-1568.604	987.320	318.059	-1590.425	985.076	111.368	-1777.926	1012.528	269.312	-1787.175	1011.676	184.866	-1565.640	489.521	324.839	-1643.061	478.566	77.276	-1586.262	502.953	205.436	-1633.783	465.333	189.436	-1590.205	69.820	290.697	-1946.774	191.928	93.176	-1584.415	76.411	220.208	-1929.231	190.550	159.893	-1716.093	1466.402	242.408	-1613.272	1392.385	318.333	-1621.010	1400.857	163.474	-1629.665	1397.931	237.628	-1589.301	1197.938	217.908	-1556.556	590.553	410.562	-1491.517	602.578	114.903	-1544.294	656.629	343.145	-1573.245	659.891	88.248	-1535.380	577.583	315.371	-1579.238	572.068	90.484	-1575.220	142.585	360.253	-1788.696	192.263	122.356	-1591.153	201.875	300.634	-1801.093	275.113	121.635	-1460.931	42.886	247.309	-1896.308	68.957	137.472
	99	1.03333	-1654.476	900.441	222.713	-1646.460	889.994	277.483	-1657.975	888.914	171.542	-1569.900	489.859	266.013	-1629.101	474.465	137.343	-1585.875	70.791	253.120	-1930.347	187.277	131.842	-1574.494	986.642	215.074	-1563.263	987.695	318.396	-1585.725	985.589	111.751	-1772.705	1012.902	269.953	-1782.178	1012.031	185.538	-1563.195	489.448	325.132	-1631.417	479.194	78.076	-1583.997	503.184	205.838	-1622.578	465.774	190.292	-1590.122	69.792	290.869	-1935.826	193.764	93.266	-1584.390	76.474	220.356	-1918.288	192.399	160.078	-1710.515	1466.843	243.446	-1607.976	1392.882	319.502	-1615.285	1401.310	164.618	-1624.146	1398.406	238.750	-1583.755	1198.402	219.197	-1552.748	590.646	410.765	-1482.067	605.167	116.221	-1540.332	656.560	343.356	-1564.519	661.060	89.079	-1532.099	577.451	315.543	-1569.182	573.186	91.431	-1574.604	142.476	360.439	-1777.879	193.656	123.539	-1590.330	201.875	300.872	-1790.330	276.451	122.429	-1460.929	42.842	247.335	-1882.395	71.844	135.105
	100	1.04167	-1649.690	900.489	223.001	-1641.260	890.382	277.973	-1653.074	889.361	172.065	-1567.893	489.787	266.345	-1617.717	475.296	138.199	-1585.887	70.784	253.295	-1919.179	188.704	132.116	-1569.530	987.113	215.422	-1558.009	988.108	318.708	-1581.051	986.118	112.136	-1767.557	1013.193	270.561	-1777.223	1012.387	186.179	-1560.819	489.368	325.421	-1619.905	479.958	78.922	-1581.290	502.525	206.491	-1611.440	466.464	191.356	-1590.039	69.786	291.055	-1924.452	195.070	93.491	-1584.342	76.566	220.518	-1906.755	193.477	160.395	-1705.003	1467.284	244.421	-1602.730	1393.173	320.659	-1609.664	1401.739	165.724	-1618.703	1398.781	239.853	-1578.453	1198.756	220.231	-1549.063	590.715	410.987	-1472.711	607.854	117.489	-1537.236	656.386	343.300	-1555.866	662.272	89.901	-1528.949	577.279	315.681	-1559.239	574.488	92.442	-1573.991	142.390	360.615	-1766.600	194.856	124.570	-1589.576	201.900	301.140	-1779.175	277.529	123.213	-1460.935	42.818	247.366	-1867.658	74.430	132.666
	101	1.05000	-1644.897	900.591	223.252	-1636.100	890.781	278.449	-1648.181	889.816	172.571	-1565.901	489.734	266.671	-1606.475	476.267	139.078	-1585.899	70.804	253.479	-1907.476	189.520	132.472	-1564.608	987.610	215.777	-1552.828	988.551	319.017	-1576.388	986.669	112.536	-1762.482	1013.449	271.140	-1772.305	1012.745	186.789	-1558.517	489.292	325.710	-1608.552	480.859	79.792	-1578.934	501.885	207.224	-1600.509	467.397	192.399	-1589.963	69.809	291.248	-1912.622	195.813	93.818	-1584.313	76.682	220.685	-1894.747	193.863	160.794	-1699.509	1467.716	245.364	-1597.391	1393.320	321.642	-1604.164	1402.132	166.763	-1613.279	1399.074	240.854	-1573.302	1199.020	220.961	-1545.535	590.756	411.230	-1463.477	610.647	118.711	-1534.201	656.218	343.266	-1547.204	663.678	90.704	-1526.000	577.051	315.853	-1549.396	575.926	93.434	-1573.405	142.324	360.779	-1754.812	195.816	125.438	-1588.802	201.967	301.412	-1767.540	278.332	123.931	-1460.951	42.817	247.398	-1852.365	76.616	130.306
	102	1.05833	-1640.034	900.834	223.565	-1630.995	891.193	278.914	-1643.308	890.290	173.062	-1563.951	489.700	267.003	-1595.410	477.359	139.963	-1585.921	70.846	253.670	-1895.237	189.710	132.886	-1559.722	988.124	216.150	-1547.717	989.004	319.346	-1571.726	987.244	112.954	-1757.473	1013.741	271.693	-1767.418	1013.100	187.366	-1556.305	489.226	326.008	-1597.391	481.883	80.668	-1576.898	501.818	207.726	-1589.651	468.401	193.207	-1589.913	69.853	291.447	-1900.330	195.970	94.219	-1584.286	76.816	220.844	-1882.324	193.649	161.255	-1694.044	1468.126	246.292	-1592.015	1393.458	322.525	-1598.731	1402.520	167.742	-1607.871	1399.359	241.784	-1568.145	1199.286	221.583	-1542.169	590.761	411.481	-1454.389	613.530	119.892	-1530.921	656.077	343.444	-1538.680	665.300	91.446	-1523.152	576.850	316.043	-1539.640	577.465	94.304	-1572.880	142.272	360.935	-1742.559	196.515	126.142	-1588.059	202.069	301.660	-1755.476	278.936	124.607	-1460.994	42.834	247.428	-1836.697	78.342	128.130
	103	1.06667	-1635.143	901.147	223.921	-1625.944	891.598	279.365	-1638.449	890.773	173.535	-1562.064	489.676	267.348	-1584.545	478.545	140.845	-1585.950	70.898	253.864	-1882.486	189.272	133.329	-1554.867	988.642	216.553	-1542.678	989.446	319.717	-1567.057	987.837	113.389	-1752.518	1014.045	272.223	-1762.554	1013.442	187.913	-1554.198	489.163	326.324	-1586.441	483.000	81.542	-1575.011	501.882	208.189	-1578.745	469.541	194.003	-1589.892	69.907	291.646	-1887.589	195.532	94.663	-1584.234	76.987	220.951	-1869.438	192.850	161.736	-1688.755	1468.506	247.130	-1586.775	1393.650	323.393	-1593.347	1402.930	168.689	-1602.556	1399.670	242.682	-1562.896	1199.609	222.234	-1538.963	590.734	411.738	-1445.462	616.467	121.021	-1527.674	655.943	343.656	-1530.320	667.048	92.115	-1520.427	576.681	316.253	-1529.950	579.152	95.132	-1572.436	142.220	361.090	-1729.893	196.945	126.699	-1587.397	202.167	301.901	-1743.010	279.373	125.337	-1461.066	42.859	247.454	-1820.724	79.587	126.218
	104	1.07500	-1630.230	901.491	224.261	-1620.940	891.974	279.806	-1633.586	891.247	173.992	-1560.251	489.649	267.709	-1573.882	479.793	141.720	-1585.978	70.944	254.054	-1869.257	188.212	133.778	-1550.036	989.148	216.999	-1537.709	989.857	320.145	-1562.364	988.438	113.852	-1747.609	1014.316	272.724	-1757.711	1013.760	188.422	-1552.204	489.090	326.659	-1575.714	484.179	82.410	-1573.332	502.039	208.669	-1568.515	470.887	194.652	-1589.888	69.952	291.839	-1874.423	194.498	95.125	-1584.219	77.158	221.015	-1856.150	191.508	162.215	-1683.582	1468.844	247.908	-1581.679	1393.943	324.258	-1588.068	1403.326	169.587	-1597.364	1400.015	243.550	-1557.657	1199.973	223.012	-1535.922	590.680	412.014	-1436.699	619.415	122.079	-1524.431	655.812	343.900	-1521.935	668.821	92.746	-1517.837	576.500	316.508	-1520.549	580.954	95.872	-1572.056	142.161	361.250	-1716.797	197.113	127.117	-1586.805	202.213	302.160	-1730.305	279.581	125.975	-1461.146	42.887	247.482	-1804.418	80.361	124.616
	105	1.08333	-1625.332	901.819	224.610	-1615.983	892.312	280.248	-1628.718	891.699	174.443	-1558.519	489.607	268.094	-1563.427	481.072	142.585	-1586.000	70.967	254.234	-1855.575	186.528	134.227	-1545.223	989.626	217.497	-1532.809	990.224	320.635	-1557.636	989.028	114.360	-1742.742	1014.560	273.192	-1752.887	1014.045	188.894	-1550.331	488.996	327.025	-1565.217	485.389	83.269	-1571.589	502.245	209.074	-1558.599	472.274	195.239	-1589.892	69.971	292.021	-1860.856	192.863	95.598	-1584.232	77.257	221.087	-1842.673	189.678	162.708	-1678.363	1469.125	248.719	-1576.689	1394.222	325.236	-1582.884	1403.670	170.415	-1592.272	1400.333	244.437	-1552.627	1200.281	223.878	-1533.054	590.604	412.326	-1428.082	622.330	123.058	-1521.228	655.696	344.196	-1513.731	670.570	93.302	-1515.288	576.251	316.767	-1511.405	582.759	96.537	-1571.721	142.084	361.421	-1703.293	197.041	127.403	-1586.502	202.175	302.388	-1717.276	279.558	126.356	-1461.225	42.902	247.523	-1787.744	80.710	123.372
	106	1.09167	-1620.492	902.076	224.987	-1611.078	892.606	280.700	-1623.852	892.119	174.899	-1556.874	489.543	268.513	-1553.173	482.358	143.443	-1586.022	70.964	254.409	-1841.457	184.238	134.687	-1540.426	990.063	218.048	-1527.974	990.537	321.183	-1552.879	989.588	114.914	-1737.914	1014.782	273.621	-1748.073	1014.288	189.330	-1548.580	488.877	327.428	-1554.943	486.607	84.121	-1569.722	502.326	209.519	-1548.454	473.689	196.110	-1589.904	69.961	292.197	-1846.904	190.637	96.091	-1584.268	77.302	221.215	-1828.827	187.405	163.217	-1673.187	1469.388	249.525	-1571.787	1394.396	326.257	-1577.740	1403.978	171.176	-1587.243	1400.588	245.309	-1547.745	1200.515	224.668	-1530.349	590.500	412.683	-1419.604	625.176	123.963	-1518.147	655.549	344.496	-1505.772	672.253	93.775	-1512.785	575.971	317.087	-1502.336	584.509	97.262	-1571.422	141.978	361.610	-1689.428	196.742	127.582	-1586.290	202.113	302.602	-1704.061	279.209	126.680	-1461.303	42.893	247.582	-1770.681	80.700	122.555
	107	1.10000	-1615.688	902.284	225.398	-1606.225	892.853	281.158	-1618.995	892.502	175.356	-1555.307	489.458	268.966	-1543.112	483.635	144.292	-1586.041	70.938	254.588	-1826.906	181.371	135.167	-1535.647	990.452	218.643	-1523.199	990.794	321.777	-1548.096	990.110	115.509	-1733.122	1014.987	274.004	-1743.267	1014.491	189.720	-1546.933	488.734	327.870	-1544.878	487.815	84.965	-1567.839	502.207	210.124	-1538.536	475.136	196.973	-1589.918	69.924	292.376	-1832.556	187.840	96.612	-1584.363	77.314	221.426	-1814.376	184.681	163.787	-1668.138	1469.627	250.275	-1566.779	1394.584	327.048	-1572.640	1404.224	171.909	-1582.187	1400.808	246.065	-1542.703	1200.736	225.378	-1527.777	590.372	413.079	-1411.262	627.932	124.803	-1515.302	655.285	344.839	-1497.852	673.867	94.213	-1510.401	575.721	317.553	-1493.400	586.242	97.958	-1571.147	141.846	361.823	-1675.211	196.229	127.700	-1585.768	202.085	302.874	-1691.067	278.363	127.219	-1461.349	42.872	247.675	-1753.206	80.357	122.144
	108	1.10833	-1610.837	902.560	225.895	-1601.433	893.071	281.615	-1614.153	892.863	175.807	-1553.785	489.357	269.446	-1533.237	484.888	145.131	-1586.047	70.890	254.769	-1811.922	177.974	135.675	-1530.881	990.798	219.271	-1518.482	991.002	322.405	-1543.280	990.595	116.138	-1728.370	1015.227	274.343	-1738.462	1014.661	190.056	-1545.358	488.576	328.341	-1535.009	488.998	85.799	-1565.866	502.018	210.719	-1528.934	476.380	197.453	-1589.925	69.864	292.557	-1817.797	184.495	97.163	-1584.974	77.255	221.853	-1799.529	181.493	164.401	-1663.094	1469.823	251.012	-1561.652	1394.690	327.592	-1567.616	1404.403	172.649	-1577.113	1400.955	246.716	-1537.686	1200.886	225.894	-1525.318	590.234	413.515	-1403.054	630.595	125.597	-1512.640	654.974	345.245	-1489.968	675.457	94.741	-1508.073	575.444	318.056	-1484.634	587.929	98.533	-1570.888	141.696	362.059	-1660.650	195.517	127.832	-1585.258	202.051	303.179	-1677.944	277.264	127.820	-1461.348	42.855	247.808	-1735.297	79.698	122.088
	109	1.11667	-1605.818	903.073	226.556	-1596.716	893.280	282.071	-1609.339	893.217	176.251	-1552.279	489.247	269.944	-1523.540	486.101	145.957	-1586.028	70.826	254.953	-1796.520	174.116	136.224	-1526.128	991.109	219.929	-1513.825	991.170	323.061	-1538.430	991.048	116.798	-1723.662	1015.572	274.642	-1733.660	1014.806	190.332	-1543.829	488.409	328.835	-1525.324	490.140	86.621	-1563.807	501.834	211.272	-1519.657	477.642	197.932	-1589.918	69.786	292.740	-1802.619	180.653	97.749	-1585.560	77.232	222.273	-1784.142	177.907	164.938	-1658.074	1470.014	251.735	-1556.561	1394.662	328.110	-1562.649	1404.610	173.372	-1572.087	1401.057	247.350	-1532.802	1200.998	226.180	-1522.961	590.096	413.998	-1394.989	633.170	126.361	-1510.069	654.690	345.703	-1482.175	677.064	95.266	-1505.769	575.138	318.566	-1476.070	589.515	99.103	-1570.636	141.540	362.315	-1645.763	194.636	128.061	-1584.898	202.013	303.503	-1664.490	276.075	128.340	-1461.310	42.848	247.969	-1716.958	78.767	122.371
